<svg id="Capa_1" data-name="Capa 1" xmlns="http://www.w3.org/2000/svg" viewBox="0 0 512 511.99"><defs><style>.cls-1{fill:#c8c8c8;}</style></defs><title>approved-signal-grey</title><path class="cls-1" d="M477.69,128,418.28,93.7,384,34.3H315.4L256,0,196.59,34.3H128L93.7,93.71,34.3,128v68.59L0,256l34.3,59.41V384l59.41,34.3L128,477.7H196.6L256,512l59.41-34.3H384l34.3-59.41L477.7,384V315.4L512,256l-34.3-59.41V128ZM232.89,360.78a24.92,24.92,0,0,1-34.64,0l-74.87-74.87a24,24,0,0,1,0-34l19.82-19.82a24,24,0,0,1,34,0l38.4,38.4L334.82,151.26a24,24,0,0,1,34,0l19.82,19.82a24,24,0,0,1,0,34Z" transform="translate(0 0)"/></svg>