<?xml version="1.0" encoding="iso-8859-1"?>
<!-- Generator: Adobe Illustrator 19.0.0, SVG Export Plug-In . SVG Version: 6.00 Build 0)  -->
<svg version="1.1" id="Capa_1" xmlns="http://www.w3.org/2000/svg" xmlns:xlink="http://www.w3.org/1999/xlink" x="0px" y="0px"
	 viewBox="0 0 512 512" style="enable-background:new 0 0 512 512;" xml:space="preserve">
<path style="fill:#14DDF7;" d="M6.905,48.412c-1.38,4.975-0.043,10.142,0.016,15.36c0.16,14.143-0.943,28.406-0.816,42.624
	c0.187,20.924,1.549,42.298,0.797,63.223c-1.324,36.837-1.891,73.77-1.602,110.688c0.131,16.72-1.25,32.75,0.315,49.333
	c1.047,11.098-1.668,29.671,10.731,35.911c8.975,4.517,25.136-0.497,35.117-0.016c10.731,0.518,14.239,2.733,15.638-8.595
	c2.96-23.968,4.914-48.047,7.839-72.018c1.969-16.137-0.309-42.483,13.857-53.48c4.951-3.843,15.251-10.104,21.537-9.756
	c4.91-10.706-3.018-32.989,6.619-40.94c4.22-3.481,11.662-1.636,16.778-1.573c9.983,0.122,19.973-0.01,29.958,0.066
	c6.221,0.047,24.573-2.124,29.478,2.001c6.007,5.051,1.365,14.132,0.863,21.119c-0.306,4.265-1.356,9.918,2.432,12.299
	c5.361,3.369,15.249-2.097,17.476-6.773c4.144-8.701,3.079-25.501,2.53-34.846c-0.61-10.372,0.944-19.435,9.614-26.043
	c10.023-7.64,26.206-4.665,38.169-4.651c17.962,0.021,37.244-3.002,55.018,0.031c9.81,1.674,31.058,2.419,38.987,9.603
	c4.637,4.202,3.206,10.578,3.47,16.707c0.528,12.268-0.939,30.718,4.719,41.811c3.204,6.281,1.863,5.639,10.531,6.49
	c5.857,0.575,11.814,1.672,17.587,1.51c3.08-9.82-1.585-26.937,4.094-36.048c5.514-8.846,18.505-2.246,26.527-4.781
	c7.958-2.514,5.581-7.228,4.801-15.21c-1.195-12.243-2.413-24.464-2.387-36.909c0.028-13.78-2.438-27.354-5.037-40.766
	c-1.921-9.912-2.263-20.775-8.811-29.162c-12.038-15.418-46.701-11.664-64.126-11.043c-37.805,1.348-75.601-0.835-113.381-1.959
	c-33.931-1.009-67.797-4.508-101.814-1.46c-22.066,1.977-43.83,1.961-66.007,1.856C50.786,42.928,28.053,38.98,6.905,48.412z"/>
<path style="fill:#B2B2B2;" d="M299.132,462.587c13.424,0.179,26.839,0.834,40.238,2.259c17.992,1.914,35.993,3.819,53.927,5.641
	c26.818,2.725,76.639,10.551,96.972-12.62c10.997-12.532,10.395-26.972,11.147-42.694c0.962-20.098,0.862-40.024,0.844-60.236
	c-0.019-21.64,0.828-43.171,0.803-65.049c-0.021-18.899,6.641-43.119-4.776-59.988c-9.595-14.178-25.487-13.692-41.235-13.696
	c-21.473-0.004-42.812-0.035-64.179,0.761c-17.132,0.638-23.854-3.465-26.47-21.438c-1.635-11.24,0.709-23.736-3.82-34.442
	c-5.906-13.962-17.087-12.617-29.988-13.926c-17.277-1.756-34.903-2.038-52.319-2.407c-12.497-0.265-25.07,0.394-37.532-0.18
	c-6.432-0.296-15.924-2.182-21.257,2.747c-9.065,8.381-6.644,36.911-6.646,47.77c-0.001,7.1,1.779,13.802-3.82,18.1
	c-8.055,6.184-25.434,3.744-34.921,4.597c-21.111,1.898-42.464-0.095-63.19,2.355c-8.13,0.961-17.121,2.193-24.175,6.719
	c-7.564,4.853-7.86,10.139-8.774,18.655c-3.3,30.748-4.416,61.598-5.62,92.583c-0.912,23.478,0.34,45.818,1.653,69.222
	c0.898,16.019-2.527,34.823,7.185,48.934c16.263,23.628,56.636,11.894,79.713,9.487c22.466-2.343,46.254-0.466,68.915-1.447
	C254.236,463.327,276.676,462.287,299.132,462.587z"/>
<g>
	<path style="fill:#7F7F7F;" d="M133.755,178.472c-4.35,1.329-7.516-0.723-11.864-0.019c-8.426,1.365-6.6,5.18-6.601,13.046
		c-0.001,4.664-2.721,23.769,1.533,26.991c4.542,3.44,27.373-1.495,32.714-1.482c12.219,0.03,24.446,0.099,36.665,0
		c10.565-0.085,10.566-1.675,9.593-13.067c-0.721-8.429-1.262-18.188-8.374-22.841C175.228,173.124,147.957,177.078,133.755,178.472
		z"/>
	<path style="fill:#7F7F7F;" d="M442.047,175.261c-11.285,0.732-25.211-1.599-36.117,1.603c-12.729,3.738-16.085,29.433-7.9,38.615
		c3.061,3.433,14.767,2.288,18.802,2.331c14.168,0.152,28.258-0.661,42.392-0.799c7.825-0.076,11.226,1.69,14.132-3.957
		c2.532-4.921,0.371-19.2-0.608-24.621C469.995,173.19,454.494,174.453,442.047,175.261z"/>
	<path style="fill:#7F7F7F;" d="M262.588,273.674c-15.255,6.126-28.393,15.294-36.082,32.23
		c-10.365,22.83-11.376,55.276,2.163,77.091c9.37,15.097,26.741,24.384,43.703,28.122c28.611,6.305,54.147-8.086,72.932-29.123
		c18.037-20.2,13.796-52.07,6.712-76.053c-7.033-23.81-37.86-46.75-62.608-40.472C280.196,267.804,271.065,270.269,262.588,273.674z
		"/>
	<path style="fill:#7F7F7F;" d="M146.6,239.488c-8.73,1.784-17.159,1.456-25.29,4.847c-7.682,3.204-12.43,10.848-2.849,16.85
		c10.337,6.475,48.437,11.257,51.462-4.796c1.083-5.749-2.142-10.333-6.287-13.91C155.334,235.315,149.257,240.242,146.6,239.488z"
		/>
</g>
<g>
	<path style="fill:#DB4040;" d="M73.541,296.49c-1.464,18.331-4.721,36.001-4.459,54.547c0.227,16.069,3.408,32.18,5.462,48.163
		c0.638,4.964,0.368,17.529,3.796,20.807c7.705,7.367,38.741,2.57,48.388,2.128c31.591-1.444,63.887,1.768,95.216-2.128
		c1.786-10.978-17.953-28.444-24.066-36.416c-11.331-14.778-11.324-33.406-6.628-50.672c0.85-3.127,16.14-46.761,16.243-46.722
		c-10.231-3.899-25.771-0.74-36.678-0.947c-15.746-0.299-31.357,0.001-47.162,0.001C109.617,285.251,75.149,276.356,73.541,296.49z"
		/>
	<path style="fill:#DB4040;" d="M367.382,280.433c0.207,8.412,4.561,17.446,6.624,25.732c3.415,13.719,6.935,26.042,4.453,40.255
		c-4.438,25.407-15.904,47.9-25.464,71.193c47.458,7.7,98.382,1.734,145.926-3.224c0.138-7.613,3.494-15.005,4.549-22.614
		c2.122-15.307,2.001-30.34,2.001-45.768c0-12.622-0.971-25.43-0.764-37.957c0.147-8.933,3.637-23.167-0.214-31.728
		c-2.407-5.35-3.285-5.147-10.278-4.781c-15.286,0.799-30.566,4.6-45.862,5.897c-16.633,1.411-33.248,2.555-49.922,3.036
		C389.034,280.746,374.442,277.516,367.382,280.433z"/>
</g>
<path style="fill:#F4F4F4;" d="M291.112,160.81c-14.594-0.02-41.516-5.15-52.828,6.622c-10.555,10.984-7.358,39.389,7.459,44.368
	c21.576,7.25,47.086,3.118,69.454,1.999c8.178-0.409,18.458,1.605,25.213-3.186c7.365-5.224,10.14-16.907,9.339-25.317
	C346.662,152.884,314.119,166.271,291.112,160.81z"/>
<path style="fill:#CF594F;" d="M12.525,193.726c24.19-25.04,47.995-50.502,73.463-74.341c9.12-8.536,18.61-18.07,28.495-25.836
	c7.131-5.602,10.358-6.3,18.468-1.983c16.356,8.705,30.396,19.996,44.558,31.88c6.47,5.43,12.404,11.286,18.284,17.114
	c4.711,4.669,13.418,9.733,16.681,15.433c5.574,9.734,1.147,28.788,1.743,40.124c0.376,7.155,1.204,7.281-4.177,11.44
	c-4.105,3.173-9.789,4.411-14.307,6.161c-1.135-7.039-0.144-21.357-4.334-27.211c-5.821-8.132-26.068-5.957-35.179-6.607
	c-8.025-0.572-32.81-5.541-40.188-0.019c-6.122,4.582-3.296,28.696-4.073,37.025c-19.785,6.804-28.556,15.298-34.001,36.401
	c-1.497,5.803-2.507,23.803-7.007,27.783c-2.223,1.966-5.959,1.28-8.469,1.654c-4.169-16.474-13.906-8.803-24.971-12.128
	c3.38-9.79,14.333-41.275,6.724-51.196c-11.896-15.51-26.58,18.153-33.154,24.851C9.989,228.938,13.05,212.86,12.525,193.726z"/>
<path style="fill:#71D182;" d="M14.131,361.521c16.602,9.032,36.834,6.586,54.453,4.696c5.962-19.023,1.746-39.94,1.886-59.519
	c0.051-7.147,6.798-30.36-8.031-25.604c-3.256-12.805-13.216-10.152-24.101-9.613c-1.149-7.87,21.613-63.52-6.143-54.008
	c-7.397,2.535-10.801,9.57-14.075,15.951c-2.848,5.549-7.638,12.864-8.821,18.911c-4.447,22.725,1.235,48.868,0.034,72.075
	c-0.427,8.255-2.809,17.183-1.624,25.476C9.12,359.768,15.676,358.704,14.131,361.521z"/>
<path style="fill:#FFDC0F;" d="M314.394,70.088c-10.28,0.91-21.229,18.229-20.113,28.141c1.059,9.405,8.944,18.907,17.707,22.238
	c22.196,8.437,48.194-10.487,37.552-35.125C343.661,71.731,332.283,69.799,314.394,70.088z"/>
<path d="M328.399,158.069c-10.148-1.138-20.06-1.174-29.993-0.749c-14.557-0.367-29.021-0.242-43.532,2.04
	c-14.585,2.294-22.824,9.096-25.507,23.977c-2.094,11.615-0.902,27.811,11.735,32.791c6.532,2.574,14.299,1.926,21.114,2.284
	c10.237,0.537,20.342,0.841,30.609,0.855c14.546,0.022,35.001,3.341,48.045-4.971c12.064-7.688,15.601-23.351,12.734-36.572
	C350.46,163.232,342.303,159.628,328.399,158.069z M346.101,193.505c-2.103,8.943-8.568,15.109-17.534,16.819
	c-11.718,2.234-23.901,1.209-35.742,1.204c-11.744-0.005-23.433-0.22-35.144-0.751c-8.206-0.373-17.668-1.135-20.45-10.09
	c-2.426-7.811-2.115-19.14,2.266-26.122c5.728-9.127,18.624-8.839,28.076-9.996c5.272-0.646,10.529-1.074,15.788-1.377
	c8.795,0.211,17.543-0.186,26.385,0.431c8.555,0.597,20.325,0.324,28.198,3.911C346.542,171.449,348.057,185.188,346.101,193.505z"
	/>
<path d="M511.351,309.407c-0.265-11.946-3.069-23.811-2.999-35.445c0.083-13.766,4.078-26.668-1.077-39.724
	c-4.411-11.172-15.129-16.915-27.168-19.825c0.983-6.996-0.483-14.507-0.945-21.501c-0.375-5.673,1.37-13.28-2.621-18.105
	c-7.645-9.242-31.81-5.815-41.663-5.739c-0.148,0.001-0.295,0.011-0.442,0.013c-0.641-5.973,0.11-12.675-0.146-18.508
	c-0.336-7.634-1.127-15.359-1.877-22.968c-1.936-19.631-3.299-39.07-6.941-58.486c-2.854-15.212-7.052-28.122-23.961-30.406
	c-20.518-2.772-42.832-0.065-63.551-0.076c-19.455-0.011-38.971-2.021-58.428-2.652c-22.325-0.724-44.738-0.241-67.087-0.832
	c-44.877-1.188-89.894,0.397-134.748,1.859c-12.846,0.419-25.459,1.079-38.264,2.235c-9.535,0.86-22.282-1.217-31.295,1.762
	c-6.595,2.179-7.635,7.634-7.457,14.007c0.314,11.261,1.003,23.135,2.673,34.296c0.015,0.101,0.071,0.169,0.096,0.262
	c-0.22,5.112-0.319,10.229-0.375,15.355c-0.195,17.838-0.484,35.676-0.681,53.515c-0.391,35.439,0.786,70.741-0.32,106.199
	c-0.485,15.545-1.769,31.422-1.32,46.947c0.427,14.742-2.86,33.2,1.677,47.395c3.58,11.202,15.242,11.369,25.331,12.735
	c11.747,1.591,26.114,2.696,38.094,0.252c0.782,15.621,1.811,31.213,2.311,46.882c0.636,19.928,1.377,41.845,23.087,49.636
	c22.092,7.928,50.8,3.696,73.707,2.53c70.605-3.594,141.111,1.418,211.79,4.51c25.815,1.129,51.659,2.259,77.487,1.47
	c9.344-0.285,18.887-0.867,27.536-4.414c28.514-11.694,28.046-53.916,29.341-79.498C512.529,365.186,511.97,337.311,511.351,309.407
	z M489.112,231.67c12.469,6.951,9.473,24.412,8.71,36.442c-0.001,0.018-0.001,0.035-0.002,0.052
	c-2.394-0.181-4.612-0.335-5.177-0.291c-4.959,0.393-9.877,0.654-14.826,0.984c-12.422,0.829-24.831,2.057-37.274,2.978
	c-24.324,1.801-48.44,0.045-72.642,3.607c-6.617-9.271-15.19-17.352-25.575-23.831c-11.927-7.44-37.959-17.999-54.99-13.705
	c-14.359-0.176-30.266,6.058-41.652,10.966c-15.78,6.802-29.548,18.162-39.492,31.675c-0.319-0.106-0.645-0.193-0.982-0.236
	c-17.93-2.264-37.184-0.712-55.278-0.119c-22.885,0.75-46.298-0.089-69.138,2.171c0.468-6.387,1.111-12.753,2.27-19.036
	c2.081-11.28,3.485-25.585,14.088-31.616c11.442-6.509,28.145-6.923,40.972-7.724c10.93-0.682,21.827-1.057,32.762-1.698
	c11.626-0.682,41.382,3.436,48.983-9.135c4.726-7.816,0.86-21.802,0.821-30.477c-0.068-14.957-0.736-28.646,17.001-32.452
	c7.304-1.567,14.571-2.255,21.866-2.604c12.206,0.683,24.38,1.943,36.603,2.079c10.957,0.122,21.306-1.354,32.208,0.792
	c8.099,1.595,23.209,2.217,27.034,10.273c2.229,4.694,1.656,11.603,2.375,16.774c1.066,7.667,2.464,15.289,3.133,23.008
	c0.524,6.052-0.428,13.568,3.423,18.816c5.107,6.959,15.815,5.296,23.27,5.274c22.832-0.068,46.141-2.451,68.922-0.717
	C466.154,224.652,480.391,226.809,489.112,231.67z M345.613,407.695c-26.607,24.871-71.89,26.633-105.262,9.918
	c-17.685-8.858-32.026-22.905-38.47-41.453c-6.847-19.707-5.698-41.74,0.28-61.508c6.092-20.146,19.581-39.744,38.52-51.481
	c15.503-9.607,36.955-19.934,55.616-16.431c12.634,2.371,27.089,7.549,38.209,14.002c16.922,9.82,29.445,26.416,34.085,44.492
	C377.89,341.469,375.184,380.054,345.613,407.695z M122.048,184.141c3.238-3.077,14.5,0.505,18.893,0.807
	c6.353,0.437,12.739,0.55,19.107,0.945c6.36,0.393,14.16-0.52,20.27,1.027c7.601,1.925,6.557,7.277,6.949,13.79
	c0.201,3.341-0.174,6.773,0.23,9.767c-5.046-0.201-9.902-0.697-13.33-0.462c-18.355,1.26-37.031,1.073-55.347,3.531
	c1.125-4.454,1.93-8.926,2.166-13.579C121.159,196.589,119.286,186.765,122.048,184.141z M430.925,179.782
	c8.88-0.142,28.407-3.429,34.99,3.314c5.213,5.34,2.58,19.671,3.532,29.439c-8.027-0.96-16.006-1.047-22.58-0.951
	c-12.307,0.178-24.611,0.565-36.91,1.041c-2.591,0.101-5.705,0.495-9,0.881c1.462-9.406,1.731-19.032,0.319-28.387
	c-0.542-3.592-0.61-3.488,0.828-4.644c0.662-0.533,8.963,0.183,8.844,0.182C417.676,180.73,424.23,179.889,430.925,179.782z
	 M11.578,56.578c0.113-1.265,0.414-2.428,1.124-3.319c2.55-3.204,9.782-1.82,13.975-2.003c19.906-0.869,39.743-2.499,59.665-3.34
	c38.717-1.635,77.933-2.317,116.67-1.378c38.397,0.93,76.764,1.776,115.118,2.903c17.137,0.503,34.209,0.856,51.392,0.856
	c9.033,0,18.298-0.688,27.315-0.166c7.659,0.443,10.897,2.205,14.048,9.544c1.94,4.518,2.583,9.479,3.51,14.264
	c3.569,18.433,4.616,37.247,6.235,55.939c0.753,8.692,1.748,17.384,1.869,26.117c0.062,4.458-0.094,9.054,0.247,13.538
	c-5.377,0.284-10.752,0.56-16.182,0.387c-5.12-0.163-12.279-1.561-15.58,3.702c-2.841,4.529-0.477,12.304-0.02,16.95
	c0.787,8.004-0.276,15.8,0.767,23.734c-4.849,0.169-9.447-0.255-12.777-2.196c-12.245-7.138-8.573-28.725-10.003-40.337
	c-0.678-5.506-0.405-12.271-2.655-17.351c-10.002-22.11-57.968-17.33-76.644-17.138c-15.136,0.155-29.887-1.751-45.116,0.301
	c-8.545,1.151-18.762,2.179-25.396,8.237c-2.215,2.023-3.943,4.337-5.357,6.815c-0.047-0.032-0.08-0.071-0.129-0.103
	c-20.283-13.077-36.994-32.481-55.255-48.126c-13.226-11.331-26.87-27.054-44.511-15.915c-19.439,12.274-34.505,32.386-51.192,48.03
	c-16.841,15.788-33.02,32.343-48.857,49.154c-0.355-17.16-0.801-34.321-1.021-51.475c-0.206-16.061-0.789-32.11-1.144-48.167
	C11.471,76.941,13.625,65.902,11.578,56.578z M67.621,300.555c-1.009,13.602-2.867,27.152-2.761,40.805
	c0.047,5.964,0.212,11.913,0.435,17.854c-0.542,0.211-1.047,0.502-1.493,0.901c-6.407,1.177-13.694,0.381-20.132,0.502
	c-7.658,0.144-15.742-0.137-23.207-2.048c-8.763-2.244-7.488-8.901-7.643-16.82c-0.145-7.42,0.131-14.85-0.033-22.269
	c-0.507-22.939,0.565-45.907,1.166-68.878c1.657-3.541,3.362-7.059,5.266-10.451c2.339-4.168,4.933-8.317,7.804-12.143
	c2.48-3.306,12.492-16.916,16.409-2.32c1.693,6.308-4.055,19.027-5.748,25.314c-1.352,5.023-5.381,13.3-4.421,18.598
	c1.666,9.197,7.161,4.275,13.501,3.829c16.311-1.146,7.055,7.48,14.153,11.993c1.847,1.174,6.227,1.237,7.739-0.016
	C68.297,290.459,67.995,295.515,67.621,300.555z M68.464,277.105c-3.39,2.019-5.423-3.894-7.082-6.255
	c-2.648-3.768-6.797-5.813-11.438-5.171c-0.677,0.094-9.454,3.543-10.406,2.928c0.302,0.196,2.613-7.884,3.315-10.379
	c2.889-10.277,6.805-21.359,7.513-32.075c0.807-12.22-7.974-20.143-19.074-12.586c-5.672,3.861-12.029,11.203-17.023,19.381
	c0.016-1.682,0.047-3.363,0.052-5.045c0.033-11.316-0.127-22.638-0.333-33.96c31.391-29.329,61.537-59.957,92.733-89.51
	c3.933-3.726,8.098-7.413,12.866-10.048c8.543-4.722,15.214,1.103,21.796,6.304c8.567,6.769,16.717,14.069,24.671,21.541
	c13.601,12.779,27.846,27.115,43.553,37.223c0.367,0.237,0.73,0.381,1.088,0.487c-1.212,4.046-1.859,8.309-2.141,12.555
	c-0.562,8.447,3.568,21.008,1.378,28.705c-1.503,5.282-5.711,7.68-10.87,8.693c-4.104-9.175,4.24-24.397-5.543-31.466
	c-5.574-4.027-14.907-3.032-21.21-3.356c-8.821-0.455-17.648-1.102-26.457-1.631c-10.115-0.607-26.946-5.706-34.284,4.152
	c-3.339,4.486-2.202,9.784-2.068,15.113c0.188,7.488-0.804,14.953-0.094,22.364c-1.708,0.329-3.413,0.677-5.113,1.068
	c-8.039,1.851-17.404,5.73-22.741,12.255c-6.624,8.098-8.142,21.833-9.982,31.766c-0.687,3.707,0.492,14.456-2.861,16.789
	C68.626,277.004,68.545,277.057,68.464,277.105z M79.898,409.51c-0.776-11.956-1.57-23.929-2.349-35.899
	c-1.548-23.78,0.23-47.322,1.958-71.005c0.275-3.764,0.49-7.546,0.711-11.329c24.662,2.446,49.451,0.712,74.141,0.67
	c10.133-0.018,20.249-0.79,30.331-0.742c5.08,0.023,9.794,0.825,14.426,0.539c-0.526,0.979-1.046,1.96-1.532,2.952
	c-18.475,37.71-19.79,89.371,15.192,119.501c0.03,0.026,0.063,0.05,0.093,0.076c-3.716,0.191-7.387,0.418-10.931,0.567
	c-14.583,0.615-29.236,1.704-43.827,0.981c-25.723-1.274-52.151-1.086-77.846,1.433C80.169,414.665,80.065,412.08,79.898,409.51z
	 M489.74,447.244c-7.243,15.706-21.587,16.341-36.927,17.018c-51.209,2.261-102.836-3.001-154.035-4.727
	c-24.495-0.826-48.917-2.249-73.451-2.387c-26.845-0.151-53.465,1.295-80.278,2.147c-19.736,0.627-57.365,6.491-62.689-18.876
	c-0.99-4.715-1.438-9.514-1.712-14.331c25.779,1.626,51.59-0.009,77.463,1.396c13.834,0.751,27.721-0.125,41.537-0.752
	c9.701-0.44,19.07-0.592,28.336-2.113c33.389,18.335,82.168,20.434,113.906,1.299c1.297-0.781,2.568-1.613,3.825-2.474
	c0.252,0.054,0.514,0.095,0.794,0.112c27.027,1.644,54.426,0.846,81.529,0.917c13.661,0.036,27.214-0.342,40.841-0.759
	c8.267-0.253,18.103-0.336,26.766-1.877C494.666,430.564,493.353,439.411,489.74,447.244z M497.02,409.309
	c-9.256-0.577-18.935,2.135-28.141,2.431c-14.4,0.463-28.733,0.788-43.167,0.833c-15.093,0.048-30.211,0.598-45.3,0.39
	c-6.921-0.095-14.542-0.77-21.86-0.32c10.582-10.753,18.64-24.142,22.686-37.525c6.831-22.597,5.069-41.975,1.159-64.78
	c-1.568-9.146-4.535-17.796-8.795-25.762c8.691,0.598,17.582-0.45,26.247-0.774c15.046-0.562,29.997,0.564,45.05-0.633
	c12.193-0.969,24.395-1.398,36.55-2.419c5.045-0.424,10.624-0.344,16.015-0.815c-0.125,19.711,2.06,39.352,1.844,59.063
	C499.047,362.585,499.692,385.787,497.02,409.309z"/>
<path d="M328.214,273.029c-23.074-14.393-48.608-12.455-72.72-2.062c-15.834,6.826-28.975,19.748-36.193,34.482
	c-13.902,28.375-14.891,67.249,11.431,89.921c24.026,20.694,69.312,25.607,97.154,8.822c14.058-8.476,25.116-23.364,29.608-38.228
	c5.14-17.004,3.815-31.584,0.872-48.745C355.238,298.972,344.73,283.331,328.214,273.029z M330.688,390.476
	c-21.385,19.989-63.571,18.954-87.486,3.091c-24.9-16.515-28.203-47.486-20.457-73.102c4.584-15.16,14.734-29.907,28.986-38.739
	c10.11-6.265,22.011-12.158,34.29-12.808c11.703-0.619,26.32,5.183,36.31,10.98c12.733,7.389,22.157,19.877,25.648,33.479
	C354.976,340.644,352.94,369.678,330.688,390.476z"/>
<path d="M340.816,122.229c15.709-9.78,17.25-32.442,5.816-45.993c-6.211-7.362-15.05-10.958-24.595-10.743
	c-9.834,0.221-15.507,5.683-21.075,12.845c-9.298,9.616-13.623,23.029-4.551,35.922
	C306.174,128.135,326.702,131.015,340.816,122.229z M304.053,81.045c4.168-3.042,8.433-6.758,13.27-7.939
	c7.4-1.808,16.458,0.953,21.842,6.121c11.553,11.091,9.707,31.454-5.361,38.41c-10.74,4.958-24.762,2.762-32.054-7.027
	C294.04,100.26,297.227,89.649,304.053,81.045z"/>
<path d="M126.438,239.826c-6.441,0.625-12.25,2.831-15.47,9.104c-10.14,19.757,12.727,20.222,25.819,20.392
	c15.553,0.202,38.032,2.868,34.692-20.013C168.845,231.266,139.711,236.047,126.438,239.826z M153.123,263.41
	c-4.8,0.069-9.698-0.877-14.575-0.816c-4.918,0.062-11.006,0.543-15.783-0.771c-12.068-3.321-6.924-14.259,4.434-16.154
	c7.787-1.298,37.886-7.29,37.569,7.473C164.655,258.432,157.936,263.341,153.123,263.41z"/>
<g>
</g>
<g>
</g>
<g>
</g>
<g>
</g>
<g>
</g>
<g>
</g>
<g>
</g>
<g>
</g>
<g>
</g>
<g>
</g>
<g>
</g>
<g>
</g>
<g>
</g>
<g>
</g>
<g>
</g>
</svg>
